<?xml version="1.0" encoding="UTF-8"?>
<!--Generator: Apple Native CoreSVG 232.5-->
<!DOCTYPE svg
PUBLIC "-//W3C//DTD SVG 1.1//EN"
       "http://www.w3.org/Graphics/SVG/1.1/DTD/svg11.dtd">
<svg version="1.1" xmlns="http://www.w3.org/2000/svg" xmlns:xlink="http://www.w3.org/1999/xlink" width="40.9766" height="52.6758">
 <g>
  <rect height="52.6758" opacity="0" width="40.9766" x="0" y="0"/>
  <path d="M29.8242 12.0703C26.0547 12.0703 23.0078 14.3555 21.0352 14.3555C18.9453 14.3555 16.2109 12.207 12.9297 12.207C6.71875 12.207 0.410156 17.3438 0.410156 27.0312C0.410156 33.0859 2.73438 39.4531 5.625 43.5547C8.10547 47.0312 10.2539 49.9023 13.3789 49.9023C16.4648 49.9023 17.8125 47.8516 21.6406 47.8516C25.5469 47.8516 26.4062 49.8438 29.8242 49.8438C33.2031 49.8438 35.4492 46.7578 37.5781 43.6914C39.9609 40.1953 40.957 36.7773 40.9766 36.6211C40.7812 36.543 34.3164 33.9062 34.3164 26.5234C34.3164 20.1172 39.4141 17.2461 39.6875 17.0312C36.3477 12.207 31.2305 12.0703 29.8242 12.0703ZM28.0469 7.98828C29.5898 6.11328 30.6836 3.57422 30.6836 0.996094C30.6836 0.644531 30.6641 0.292969 30.5859 0C28.0859 0.0976562 25.0586 1.67969 23.2617 3.80859C21.8359 5.41016 20.5273 7.98828 20.5273 10.5664C20.5273 10.9375 20.5859 11.3281 20.625 11.4648C20.7812 11.4844 21.0352 11.5234 21.2891 11.5234C23.5547 11.5234 26.3867 10.0195 28.0469 7.98828Z" fill="#000000"/>
 </g>
</svg>
